<svg xmlns="http://www.w3.org/2000/svg" width="512" height="512" viewBox="0 0 512 512">
  <!-- Echo AI minimal icon: speech bubble with equalizer bars -->
  <defs>
    <linearGradient id="g" x1="0" y1="0" x2="1" y2="1">
      <stop offset="0%" stop-color="#1f4aa0"/>
      <stop offset="100%" stop-color="#1d3f8b"/>
    </linearGradient>
  </defs>
  <rect width="512" height="512" rx="96" fill="url(#g)"/>
  <g transform="translate(92 120)">
    <!-- speech bubble -->
    <path d="M208 0c88 0 160 54 160 120s-72 120-160 120h-44l-60 48c-9 7-22-1-20-12l8-36C42 216 0 172 0 120 0 54 72 0 160 0z" fill="#ffffff" opacity="0.95"/>
    <!-- equalizer bars -->
    <rect x="124" y="64" width="20" height="112" rx="10" fill="#1f4aa0" opacity="0.8"/>
    <rect x="164" y="40" width="20" height="160" rx="10" fill="#1f4aa0" opacity="0.8"/>
    <rect x="204" y="80" width="20" height="96" rx="10" fill="#1f4aa0" opacity="0.8"/>
  </g>
</svg>
